<!-- <svg version="1.1" height="300" width="300" xmlns="http://www.w3.org/2000/svg" xmlns:xlink="http://www.w3.org/1999/xlink">	 -->
<svg version="1.1" viewbox="0 0 300 300" xmlns="http://www.w3.org/2000/svg" xmlns:xlink="http://www.w3.org/1999/xlink">
	<g transform="scale(0.57) translate(-40, -50) rotate(135, 150, 150)">
			<path
   			d="m 306.21237,-195.88527 q 13.68454,-22.08776 5.25361,-37.84702 -8.43024,-15.75923 -34.33309,-15.75923 H -4.3758149 q -25.9027101,0 -34.3331901,15.75923 -8.430774,15.75926 5.25385,37.84702 L 89.460395,0.91927366 V 99.941817 h -15.63946 q -6.35333,0 -10.99621,4.715283 -4.64315,4.71541 -4.64315,11.16813 0,6.45223 4.64315,11.16796 4.64288,4.71529 10.99621,4.71529 H 198.93614 q 6.35383,0 10.99643,-4.71529 4.64294,-4.71573 4.64294,-11.16796 0,-6.45272 -4.64294,-11.16813 -4.6426,-4.715283 -10.99643,-4.715283 H 183.29668 V 0.91927366 z M 115.85186,-15.956828 49.384635,-122.42483 H 223.37244 l -66.46722,106.468002 -4.88731,7.6934897 V 0.91927366 99.941817 H 120.7394 V 0.91927366 -8.2633383 z" />
	</g>
</svg>