<?xml version="1.0" encoding="UTF-8" standalone="no"?>
<svg
   xmlns:dc="http://purl.org/dc/elements/1.1/"
   xmlns:cc="http://creativecommons.org/ns#"
   xmlns:rdf="http://www.w3.org/1999/02/22-rdf-syntax-ns#"
   xmlns:svg="http://www.w3.org/2000/svg"
   xmlns="http://www.w3.org/2000/svg"
   id="svg241"
   height="143.53mm"
   width="338.79001mm"
   version="1.0">
  <metadata
     id="metadata245">
    <rdf:RDF>
      <cc:Work
         rdf:about="">
        <dc:format>image/svg+xml</dc:format>
        <dc:type
           rdf:resource="http://purl.org/dc/dcmitype/StillImage" />
      </cc:Work>
    </rdf:RDF>
  </metadata>
  <defs
     id="defs3">
    <pattern
       y="0"
       x="0"
       height="6"
       width="6"
       patternUnits="userSpaceOnUse"
       id="EMFhbasepattern" />
  </defs>
  <path
     id="path5"
     d="  M 0.23985463,0.079951545   L 0.23985463,543.11084   L 1279.4646,543.11084   L 1279.4646,0.079951545   L 0.23985463,0.079951545   z "
     style="fill:#ffffff;fill-rule:evenodd;fill-opacity:1;stroke:none;" />
  <path
     id="path7"
     d="  M 11.972744,96.181708   L 593.62023,96.181708   L 593.62023,168.87765   L 11.972744,168.87765   z "
     style="fill:none;stroke:#2f528f;stroke-width:2.6583889px;stroke-linecap:butt;stroke-linejoin:miter;stroke-miterlimit:8;stroke-dasharray:none;stroke-opacity:1;" />
  <path
     id="path9"
     d="  M 84.67868,96.171714   L 84.67868,168.87765  "
     style="fill:none;stroke:#4472c4;stroke-width:0.66959417px;stroke-linecap:butt;stroke-linejoin:miter;stroke-miterlimit:8;stroke-dasharray:none;stroke-opacity:1;" />
  <path
     id="path11"
     d="  M 157.38462,96.171714   L 157.38462,168.87765  "
     style="fill:none;stroke:#4472c4;stroke-width:0.66959417px;stroke-linecap:butt;stroke-linejoin:miter;stroke-miterlimit:8;stroke-dasharray:none;stroke-opacity:1;" />
  <path
     id="path13"
     d="  M 230.09055,96.171714   L 230.09055,168.87765  "
     style="fill:none;stroke:#4472c4;stroke-width:0.66959417px;stroke-linecap:butt;stroke-linejoin:miter;stroke-miterlimit:8;stroke-dasharray:none;stroke-opacity:1;" />
  <path
     id="path15"
     d="  M 302.79649,96.171714   L 302.79649,168.87765  "
     style="fill:none;stroke:#4472c4;stroke-width:0.66959417px;stroke-linecap:butt;stroke-linejoin:miter;stroke-miterlimit:8;stroke-dasharray:none;stroke-opacity:1;" />
  <path
     id="path17"
     d="  M 375.51242,96.181708   L 375.51242,168.87765  "
     style="fill:none;stroke:#4472c4;stroke-width:0.65960026px;stroke-linecap:butt;stroke-linejoin:miter;stroke-miterlimit:8;stroke-dasharray:none;stroke-opacity:1;" />
  <path
     id="path19"
     d="  M 448.20836,96.181708   L 448.20836,168.87765  "
     style="fill:none;stroke:#4472c4;stroke-width:0.65960026px;stroke-linecap:butt;stroke-linejoin:miter;stroke-miterlimit:8;stroke-dasharray:none;stroke-opacity:1;" />
  <path
     id="path21"
     d="  M 520.92429,96.181708   L 520.92429,168.87765  "
     style="fill:none;stroke:#4472c4;stroke-width:0.65960026px;stroke-linecap:butt;stroke-linejoin:miter;stroke-miterlimit:8;stroke-dasharray:none;stroke-opacity:1;" />
  <path
     id="path23"
     d="  M 11.972744,387.00545   L 593.62023,387.00545   L 593.62023,459.72138   L 11.972744,459.72138   z "
     style="fill:none;stroke:#2f528f;stroke-width:2.6583889px;stroke-linecap:butt;stroke-linejoin:miter;stroke-miterlimit:8;stroke-dasharray:none;stroke-opacity:1;" />
  <path
     id="path25"
     d="  M 84.688674,387.00545   L 84.688674,459.72138  "
     style="fill:none;stroke:#4472c4;stroke-width:0.65960026px;stroke-linecap:butt;stroke-linejoin:miter;stroke-miterlimit:8;stroke-dasharray:none;stroke-opacity:1;" />
  <path
     id="path27"
     d="  M 157.38462,387.00545   L 157.38462,459.72138  "
     style="fill:none;stroke:#4472c4;stroke-width:0.65960026px;stroke-linecap:butt;stroke-linejoin:miter;stroke-miterlimit:8;stroke-dasharray:none;stroke-opacity:1;" />
  <path
     id="path29"
     d="  M 230.10055,387.00545   L 230.10055,459.72138  "
     style="fill:none;stroke:#4472c4;stroke-width:0.65960026px;stroke-linecap:butt;stroke-linejoin:miter;stroke-miterlimit:8;stroke-dasharray:none;stroke-opacity:1;" />
  <path
     id="path31"
     d="  M 302.79649,387.00545   L 302.79649,459.72138  "
     style="fill:none;stroke:#4472c4;stroke-width:0.65960026px;stroke-linecap:butt;stroke-linejoin:miter;stroke-miterlimit:8;stroke-dasharray:none;stroke-opacity:1;" />
  <path
     id="path33"
     d="  M 375.51242,387.00545   L 375.51242,459.72138  "
     style="fill:none;stroke:#4472c4;stroke-width:0.65960026px;stroke-linecap:butt;stroke-linejoin:miter;stroke-miterlimit:8;stroke-dasharray:none;stroke-opacity:1;" />
  <path
     id="path35"
     d="  M 448.20836,387.00545   L 448.20836,459.72138  "
     style="fill:none;stroke:#4472c4;stroke-width:0.65960026px;stroke-linecap:butt;stroke-linejoin:miter;stroke-miterlimit:8;stroke-dasharray:none;stroke-opacity:1;" />
  <path
     id="path37"
     d="  M 520.92429,387.00545   L 520.92429,459.72138  "
     style="fill:none;stroke:#4472c4;stroke-width:0.65960026px;stroke-linecap:butt;stroke-linejoin:miter;stroke-miterlimit:8;stroke-dasharray:none;stroke-opacity:1;" />
  <path
     id="path39"
     d="  M 678.22895,205.23561   L 1259.8764,205.23561   L 1259.8764,277.95154   L 678.22895,277.95154   z "
     style="fill:none;stroke:#70ad47;stroke-width:2.6783767px;stroke-linecap:butt;stroke-linejoin:miter;stroke-miterlimit:8;stroke-dasharray:none;stroke-opacity:1;" />
  <path
     id="path41"
     d="  M 750.94488,205.23561   L 750.94488,277.95154  "
     style="fill:none;stroke:#70ad47;stroke-width:0.67958814px;stroke-linecap:butt;stroke-linejoin:miter;stroke-miterlimit:8;stroke-dasharray:none;stroke-opacity:1;" />
  <path
     id="path43"
     d="  M 823.66081,205.23561   L 823.66081,277.95154  "
     style="fill:none;stroke:#70ad47;stroke-width:0.67958814px;stroke-linecap:butt;stroke-linejoin:miter;stroke-miterlimit:8;stroke-dasharray:none;stroke-opacity:1;" />
  <path
     id="path45"
     d="  M 896.33677,205.23561   L 896.33677,277.95154  "
     style="fill:none;stroke:#70ad47;stroke-width:0.67958814px;stroke-linecap:butt;stroke-linejoin:miter;stroke-miterlimit:8;stroke-dasharray:none;stroke-opacity:1;" />
  <path
     id="path47"
     d="  M 969.0527,205.23561   L 969.0527,277.95154  "
     style="fill:none;stroke:#70ad47;stroke-width:0.67958814px;stroke-linecap:butt;stroke-linejoin:miter;stroke-miterlimit:8;stroke-dasharray:none;stroke-opacity:1;" />
  <path
     id="path49"
     d="  M 1041.7686,205.23561   L 1041.7686,277.95154  "
     style="fill:none;stroke:#70ad47;stroke-width:0.67958814px;stroke-linecap:butt;stroke-linejoin:miter;stroke-miterlimit:8;stroke-dasharray:none;stroke-opacity:1;" />
  <path
     id="path51"
     d="  M 1114.4846,205.23561   L 1114.4846,277.95154  "
     style="fill:none;stroke:#70ad47;stroke-width:0.67958814px;stroke-linecap:butt;stroke-linejoin:miter;stroke-miterlimit:8;stroke-dasharray:none;stroke-opacity:1;" />
  <path
     id="path53"
     d="  M 1187.1605,205.23561   L 1187.1605,277.95154  "
     style="fill:none;stroke:#70ad47;stroke-width:0.67958814px;stroke-linecap:butt;stroke-linejoin:miter;stroke-miterlimit:8;stroke-dasharray:none;stroke-opacity:1;" />
  <path
     id="path55"
     d="  M 49.330103,168.87765   L 49.330103,184.86796   L 47.331314,184.86796   L 47.331314,168.87765   L 49.330103,168.87765  z    M 49.330103,190.86432   L 49.330103,206.85463   L 47.331314,206.85463   L 47.331314,190.86432   L 49.330103,190.86432  z    M 49.330103,212.851   L 49.330103,228.84131   L 47.331314,228.84131   L 47.331314,212.851   L 49.330103,212.851  z    M 49.330103,234.83767   L 49.330103,250.84797   L 47.331314,250.84797   L 47.331314,234.83767   L 49.330103,234.83767  z    M 49.330103,256.84434   L 49.330103,272.83465   L 47.331314,272.83465   L 47.331314,256.84434   L 49.330103,256.84434  z    M 49.330103,278.83101   L 49.330103,294.82132   L 47.331314,294.82132   L 47.331314,278.83101   L 49.330103,278.83101  z    M 49.330103,300.81769   L 49.330103,316.808   L 47.331314,316.808   L 47.331314,300.81769   L 49.330103,300.81769  z    M 49.330103,322.80436   L 49.330103,338.79467   L 47.331314,338.79467   L 47.331314,322.80436   L 49.330103,322.80436  z    M 49.330103,344.79104   L 49.330103,360.78134   L 47.331314,360.78134   L 47.331314,344.79104   L 49.330103,344.79104  z    M 49.330103,366.77771   L 49.330103,375.01272   L 47.331314,375.01272   L 47.331314,366.77771   L 49.330103,366.77771  z    M 54.986675,373.69352   L 48.330709,387.00545   L 41.674743,373.69352   L 54.986675,373.69352  z   "
     style="fill:#bfbfbf;fill-rule:nonzero;fill-opacity:1;stroke:#bfbfbf;stroke-width:0.019987887px;stroke-linecap:butt;stroke-linejoin:round;stroke-miterlimit:10;stroke-dasharray:none;stroke-opacity:1;" />
  <path
     id="path57"
     d="  M 122.02604,168.87765   L 122.02604,184.86796   L 120.02726,184.86796   L 120.02726,168.87765   L 122.02604,168.87765  z    M 122.02604,190.86432   L 122.02604,206.85463   L 120.02726,206.85463   L 120.02726,190.86432   L 122.02604,190.86432  z    M 122.02604,212.851   L 122.02604,228.84131   L 120.02726,228.84131   L 120.02726,212.851   L 122.02604,212.851  z    M 122.02604,234.83767   L 122.02604,250.84797   L 120.02726,250.84797   L 120.02726,234.83767   L 122.02604,234.83767  z    M 122.02604,256.84434   L 122.02604,272.83465   L 120.02726,272.83465   L 120.02726,256.84434   L 122.02604,256.84434  z    M 122.02604,278.83101   L 122.02604,294.82132   L 120.02726,294.82132   L 120.02726,278.83101   L 122.02604,278.83101  z    M 122.02604,300.81769   L 122.02604,316.808   L 120.02726,316.808   L 120.02726,300.81769   L 122.02604,300.81769  z    M 122.02604,322.80436   L 122.02604,338.79467   L 120.02726,338.79467   L 120.02726,322.80436   L 122.02604,322.80436  z    M 122.02604,344.79104   L 122.02604,360.78134   L 120.02726,360.78134   L 120.02726,344.79104   L 122.02604,344.79104  z    M 122.02604,366.77771   L 122.02604,375.01272   L 120.02726,375.01272   L 120.02726,366.77771   L 122.02604,366.77771  z    M 127.7026,373.69352   L 121.02665,387.00545   L 114.37068,373.69352   L 127.7026,373.69352  z   "
     style="fill:#bfbfbf;fill-rule:nonzero;fill-opacity:1;stroke:#bfbfbf;stroke-width:0.019987887px;stroke-linecap:butt;stroke-linejoin:round;stroke-miterlimit:10;stroke-dasharray:none;stroke-opacity:1;" />
  <path
     id="path59"
     d="  M 194.74197,168.87765   L 194.74197,184.86796   L 192.74319,184.86796   L 192.74319,168.87765   L 194.74197,168.87765  z    M 194.74197,190.86432   L 194.74197,206.85463   L 192.74319,206.85463   L 192.74319,190.86432   L 194.74197,190.86432  z    M 194.74197,212.851   L 194.74197,228.84131   L 192.74319,228.84131   L 192.74319,212.851   L 194.74197,212.851  z    M 194.74197,234.83767   L 194.74197,250.84797   L 192.74319,250.84797   L 192.74319,234.83767   L 194.74197,234.83767  z    M 194.74197,256.84434   L 194.74197,272.83465   L 192.74319,272.83465   L 192.74319,256.84434   L 194.74197,256.84434  z    M 194.74197,278.83101   L 194.74197,294.82132   L 192.74319,294.82132   L 192.74319,278.83101   L 194.74197,278.83101  z    M 194.74197,300.81769   L 194.74197,316.808   L 192.74319,316.808   L 192.74319,300.81769   L 194.74197,300.81769  z    M 194.74197,322.80436   L 194.74197,338.79467   L 192.74319,338.79467   L 192.74319,322.80436   L 194.74197,322.80436  z    M 194.74197,344.79104   L 194.74197,360.78134   L 192.74319,360.78134   L 192.74319,344.79104   L 194.74197,344.79104  z    M 194.74197,366.77771   L 194.74197,375.01272   L 192.74319,375.01272   L 192.74319,366.77771   L 194.74197,366.77771  z    M 200.39855,373.69352   L 193.74258,387.00545   L 187.08661,373.69352   L 200.39855,373.69352  z   "
     style="fill:#bfbfbf;fill-rule:nonzero;fill-opacity:1;stroke:#bfbfbf;stroke-width:0.019987887px;stroke-linecap:butt;stroke-linejoin:round;stroke-miterlimit:10;stroke-dasharray:none;stroke-opacity:1;" />
  <path
     id="path61"
     d="  M 267.43792,168.87765   L 267.43792,184.86796   L 265.43913,184.86796   L 265.43913,168.87765   L 267.43792,168.87765  z    M 267.43792,190.86432   L 267.43792,206.85463   L 265.43913,206.85463   L 265.43913,190.86432   L 267.43792,190.86432  z    M 267.43792,212.851   L 267.43792,228.84131   L 265.43913,228.84131   L 265.43913,212.851   L 267.43792,212.851  z    M 267.43792,234.83767   L 267.43792,250.84797   L 265.43913,250.84797   L 265.43913,234.83767   L 267.43792,234.83767  z    M 267.43792,256.84434   L 267.43792,272.83465   L 265.43913,272.83465   L 265.43913,256.84434   L 267.43792,256.84434  z    M 267.43792,278.83101   L 267.43792,294.82132   L 265.43913,294.82132   L 265.43913,278.83101   L 267.43792,278.83101  z    M 267.43792,300.81769   L 267.43792,316.808   L 265.43913,316.808   L 265.43913,300.81769   L 267.43792,300.81769  z    M 267.43792,322.80436   L 267.43792,338.79467   L 265.43913,338.79467   L 265.43913,322.80436   L 267.43792,322.80436  z    M 267.43792,344.79104   L 267.43792,360.78134   L 265.43913,360.78134   L 265.43913,344.79104   L 267.43792,344.79104  z    M 267.43792,366.77771   L 267.43792,375.01272   L 265.43913,375.01272   L 265.43913,366.77771   L 267.43792,366.77771  z    M 273.11448,373.69352   L 266.45851,387.00545   L 259.78256,373.69352   L 273.11448,373.69352  z   "
     style="fill:#bfbfbf;fill-rule:nonzero;fill-opacity:1;stroke:#bfbfbf;stroke-width:0.019987887px;stroke-linecap:butt;stroke-linejoin:round;stroke-miterlimit:10;stroke-dasharray:none;stroke-opacity:1;" />
  <path
     id="path63"
     d="  M 340.15385,168.87765   L 340.15385,184.86796   L 338.15506,184.86796   L 338.15506,168.87765   L 340.15385,168.87765  z    M 340.15385,190.86432   L 340.15385,206.85463   L 338.15506,206.85463   L 338.15506,190.86432   L 340.15385,190.86432  z    M 340.15385,212.851   L 340.15385,228.84131   L 338.15506,228.84131   L 338.15506,212.851   L 340.15385,212.851  z    M 340.15385,234.83767   L 340.15385,250.84797   L 338.15506,250.84797   L 338.15506,234.83767   L 340.15385,234.83767  z    M 340.15385,256.84434   L 340.15385,272.83465   L 338.15506,272.83465   L 338.15506,256.84434   L 340.15385,256.84434  z    M 340.15385,278.83101   L 340.15385,294.82132   L 338.15506,294.82132   L 338.15506,278.83101   L 340.15385,278.83101  z    M 340.15385,300.81769   L 340.15385,316.808   L 338.15506,316.808   L 338.15506,300.81769   L 340.15385,300.81769  z    M 340.15385,322.80436   L 340.15385,338.79467   L 338.15506,338.79467   L 338.15506,322.80436   L 340.15385,322.80436  z    M 340.15385,344.79104   L 340.15385,360.78134   L 338.15506,360.78134   L 338.15506,344.79104   L 340.15385,344.79104  z    M 340.15385,366.77771   L 340.15385,375.01272   L 338.15506,375.01272   L 338.15506,366.77771   L 340.15385,366.77771  z    M 345.81042,373.69352   L 339.15445,387.00545   L 332.49849,373.69352   L 345.81042,373.69352  z   "
     style="fill:#bfbfbf;fill-rule:nonzero;fill-opacity:1;stroke:#bfbfbf;stroke-width:0.019987887px;stroke-linecap:butt;stroke-linejoin:round;stroke-miterlimit:10;stroke-dasharray:none;stroke-opacity:1;" />
  <path
     id="path65"
     d="  M 412.86978,168.87765   L 412.86978,184.86796   L 410.87099,184.86796   L 410.87099,168.87765   L 412.86978,168.87765  z    M 412.86978,190.86432   L 412.86978,206.85463   L 410.87099,206.85463   L 410.87099,190.86432   L 412.86978,190.86432  z    M 412.86978,212.851   L 412.86978,228.84131   L 410.87099,228.84131   L 410.87099,212.851   L 412.86978,212.851  z    M 412.86978,234.83767   L 412.86978,250.84797   L 410.87099,250.84797   L 410.87099,234.83767   L 412.86978,234.83767  z    M 412.86978,256.84434   L 412.86978,272.83465   L 410.87099,272.83465   L 410.87099,256.84434   L 412.86978,256.84434  z    M 412.86978,278.83101   L 412.86978,294.82132   L 410.87099,294.82132   L 410.87099,278.83101   L 412.86978,278.83101  z    M 412.86978,300.81769   L 412.86978,316.808   L 410.87099,316.808   L 410.87099,300.81769   L 412.86978,300.81769  z    M 412.86978,322.80436   L 412.86978,338.79467   L 410.87099,338.79467   L 410.87099,322.80436   L 412.86978,322.80436  z    M 412.86978,344.79104   L 412.86978,360.78134   L 410.87099,360.78134   L 410.87099,344.79104   L 412.86978,344.79104  z    M 412.86978,366.77771   L 412.86978,375.01272   L 410.87099,375.01272   L 410.87099,366.77771   L 412.86978,366.77771  z    M 418.52635,373.69352   L 411.87038,387.00545   L 405.19443,373.69352   L 418.52635,373.69352  z   "
     style="fill:#bfbfbf;fill-rule:nonzero;fill-opacity:1;stroke:#bfbfbf;stroke-width:0.019987887px;stroke-linecap:butt;stroke-linejoin:round;stroke-miterlimit:10;stroke-dasharray:none;stroke-opacity:1;" />
  <path
     id="path67"
     d="  M 485.56572,168.87765   L 485.56572,184.86796   L 483.56693,184.86796   L 483.56693,168.87765   L 485.56572,168.87765  z    M 485.56572,190.86432   L 485.56572,206.85463   L 483.56693,206.85463   L 483.56693,190.86432   L 485.56572,190.86432  z    M 485.56572,212.851   L 485.56572,228.84131   L 483.56693,228.84131   L 483.56693,212.851   L 485.56572,212.851  z    M 485.56572,234.83767   L 485.56572,250.84797   L 483.56693,250.84797   L 483.56693,234.83767   L 485.56572,234.83767  z    M 485.56572,256.84434   L 485.56572,272.83465   L 483.56693,272.83465   L 483.56693,256.84434   L 485.56572,256.84434  z    M 485.56572,278.83101   L 485.56572,294.82132   L 483.56693,294.82132   L 483.56693,278.83101   L 485.56572,278.83101  z    M 485.56572,300.81769   L 485.56572,316.808   L 483.56693,316.808   L 483.56693,300.81769   L 485.56572,300.81769  z    M 485.56572,322.80436   L 485.56572,338.79467   L 483.56693,338.79467   L 483.56693,322.80436   L 485.56572,322.80436  z    M 485.56572,344.79104   L 485.56572,360.78134   L 483.56693,360.78134   L 483.56693,344.79104   L 485.56572,344.79104  z    M 485.56572,366.77771   L 485.56572,375.01272   L 483.56693,375.01272   L 483.56693,366.77771   L 485.56572,366.77771  z    M 491.22229,373.69352   L 484.56632,387.00545   L 477.91036,373.69352   L 491.22229,373.69352  z   "
     style="fill:#bfbfbf;fill-rule:nonzero;fill-opacity:1;stroke:#bfbfbf;stroke-width:0.019987887px;stroke-linecap:butt;stroke-linejoin:round;stroke-miterlimit:10;stroke-dasharray:none;stroke-opacity:1;" />
  <path
     id="path69"
     d="  M 558.28165,168.87765   L 558.28165,184.86796   L 556.28286,184.86796   L 556.28286,168.87765   L 558.28165,168.87765  z    M 558.28165,190.86432   L 558.28165,206.85463   L 556.28286,206.85463   L 556.28286,190.86432   L 558.28165,190.86432  z    M 558.28165,212.851   L 558.28165,228.84131   L 556.28286,228.84131   L 556.28286,212.851   L 558.28165,212.851  z    M 558.28165,234.83767   L 558.28165,250.84797   L 556.28286,250.84797   L 556.28286,234.83767   L 558.28165,234.83767  z    M 558.28165,256.84434   L 558.28165,265.95881   L 556.28286,265.95881   L 556.28286,256.84434   L 558.28165,256.84434  z    M 563.93822,264.61962   L 557.28225,277.95154   L 550.6063,264.61962   L 563.93822,264.61962  z   "
     style="fill:#4472c4;fill-rule:nonzero;fill-opacity:1;stroke:#4472c4;stroke-width:0.019987887px;stroke-linecap:butt;stroke-linejoin:round;stroke-miterlimit:10;stroke-dasharray:none;stroke-opacity:1;" />
  <path
     id="path71"
     d="  M 719.08419,278.0315   L 718.92429,280.62992   L 718.56451,283.3083   L 717.96487,285.9467   L 717.16535,288.5851   L 716.12598,291.18353   L 714.84676,293.74197   L 713.40763,296.26045   L 711.8086,298.73895   L 709.96972,301.17747   L 708.0109,303.57601   L 705.85221,305.89461   L 703.53362,308.17323   L 701.09509,310.3719   L 698.49667,312.53059   L 695.77832,314.56935   L 692.90006,316.56814   L 689.94185,318.48698   L 686.86372,320.28589   L 683.66566,322.00485   L 680.34767,323.64385   L 676.9897,325.16293   L 673.51181,326.60206   L 669.99394,327.88128   L 666.35615,329.08056   L 662.71835,330.1599   L 659.00061,331.07935   L 655.20291,331.91884   L 651.40521,332.59843   L 647.56753,333.11811   L 643.68988,333.51787   L 639.85221,333.75772   L 635.97456,333.83767   L 632.13689,333.91763   L 632.17686,333.91763   L 628.37916,334.1175   L 628.41914,334.1175   L 624.62144,334.51726   L 624.66142,334.51726   L 620.86372,335.03695   L 620.90369,335.03695   L 617.14597,335.71654   L 617.22592,335.67656   L 613.50818,336.51605   L 613.54815,336.47608   L 609.87038,337.43549   L 609.91036,337.39552   L 606.27256,338.47486   L 606.31254,338.43489   L 602.75469,339.63416   L 602.79467,339.59419   L 599.31678,340.91339   L 599.35675,340.87341   L 595.91884,342.27256   L 595.95881,342.27256   L 592.64082,343.79164   L 592.6808,343.75167   L 589.40279,345.3507   L 589.48274,345.3507   L 586.32465,347.02968   L 586.36463,347.02968   L 583.32647,348.78861   L 583.36644,348.78861   L 580.40824,350.66747   L 580.44821,350.6275   L 577.64991,352.58631   L 577.68988,352.54634   L 575.01151,354.5851   L 575.05148,354.54512   L 572.49303,356.66384   L 572.53301,356.62386   L 570.13446,358.78256   L 570.17444,358.74258   L 567.89582,360.98122   L 567.9358,360.94125   L 565.85706,363.21987   L 565.89703,363.13992   L 563.9782,365.49849   L 564.01817,365.41853   L 562.21926,367.81708   L 562.29921,367.73713   L 560.70018,370.13568   L 560.74016,370.0957   L 559.34101,372.53422   L 559.42096,372.33434   L 558.06178,375.81224   L 555.58328,374.85282   L 556.98243,371.29497   L 558.46154,368.73652   L 560.06057,366.25803   L 561.89945,363.8195   L 563.85827,361.42096   L 566.01696,359.10236   L 568.33555,356.82374   L 570.77408,354.62508   L 573.3725,352.46638   L 576.09085,350.42762   L 578.96911,348.42883   L 581.92732,346.50999   L 585.04543,344.71108   L 588.20351,342.99213   L 591.5215,341.35312   L 594.91944,339.83404   L 598.35736,338.39491   L 601.9152,337.11569   L 605.51302,335.91641   L 609.19079,334.83707   L 612.90854,333.91763   L 616.66626,333.07813   L 620.46396,332.39855   L 624.30164,331.87886   L 628.17929,331.4791   L 632.05694,331.23925   L 635.93459,331.1593   L 639.77226,331.07935   L 639.69231,331.07935   L 643.52998,330.83949   L 643.45003,330.83949   L 647.2877,330.47971   L 647.24773,330.47971   L 651.00545,329.96002   L 650.96548,329.96002   L 654.7232,329.28044   L 654.68322,329.28044   L 658.40097,328.48092   L 658.36099,328.5209   L 662.03876,327.56148   L 661.99879,327.60145   L 665.59661,326.52211   L 665.55663,326.56208   L 669.11448,325.36281   L 669.0745,325.36281   L 672.55239,324.08359   L 672.51242,324.12356   L 675.95033,322.72441   L 675.91036,322.72441   L 679.22835,321.20533   L 679.18837,321.24531   L 682.46638,319.64627   L 682.42641,319.64627   L 685.54452,317.96729   L 685.50454,317.96729   L 688.58268,316.16838   L 688.5427,316.20836   L 691.46093,314.3295   L 691.42096,314.36947   L 694.21926,312.41066   L 694.17929,312.45064   L 696.85766,310.41187   L 696.81769,310.45185   L 699.37614,308.33313   L 699.33616,308.37311   L 701.73471,306.21442   L 701.69473,306.25439   L 703.97335,304.01575   L 703.93337,304.05572   L 706.01211,301.7771   L 705.97214,301.85706   L 707.93095,299.49849   L 707.851,299.57844   L 709.64991,297.17989   L 709.60993,297.25984   L 711.16899,294.82132   L 711.12901,294.90127   L 712.52816,292.46275   L 712.48819,292.5427   L 713.68746,290.0642   L 713.64749,290.14416   L 714.64688,287.62568   L 714.6069,287.74561   L 715.40642,285.22714   L 715.36644,285.30709   L 715.96608,282.78861   L 715.92611,282.86856   L 716.28589,280.35009   L 716.28589,280.47002   L 716.40581,277.91157   L 719.08419,278.0315  z    M 563.61841,375.5324   L 554.14416,387.00545   L 550.62629,372.53422   L 563.61841,375.5324  z   "
     style="fill:#70ad47;fill-rule:nonzero;fill-opacity:1;stroke:#70ad47;stroke-width:0.039975774px;stroke-linecap:butt;stroke-linejoin:round;stroke-miterlimit:10;stroke-dasharray:none;stroke-opacity:1;" />
  <text
     id="text77"
     y="0.000000"
     x="0.000000"
     transform="matrix(1.000000,-0.000000,0.000000,1.000000,39.082771,146.775869)"
     style="font-size:42.687500px;font-style:normal;font-variant:normal;font-weight:400;font-stretch:Normal;line-height:125.000000%;letter-spacing:0px;word-spacing:0px;fill:#000000;fill-opacity:1;stroke:none;font-family:Arial;text-align:start;text-anchor:start;"
     xml:space="preserve"><tspan
       id="tspan75"
       y="0.000000"
       x="0.000000"><tspan
         id="tspan73"
         style="fill:#BFBFBF;font-size:42.687500px;font-style:normal;font-variant:normal;font-weight:400;font-stretch:Normal;font-family:Arial;"
         dy="0.000000"
         dx="0.000000">1</tspan></tspan></text>
  <text
     id="text83"
     y="0.000000"
     x="0.000000"
     transform="matrix(1.000000,-0.000000,0.000000,1.000000,30.168489,68.386391)"
     style="font-size:42.687500px;font-style:normal;font-variant:normal;font-weight:400;font-stretch:Normal;line-height:125.000000%;letter-spacing:0px;word-spacing:0px;fill:#000000;fill-opacity:1;stroke:none;font-family:Arial;text-align:start;text-anchor:start;"
     xml:space="preserve"><tspan
       id="tspan81"
       y="0.000000"
       x="0.000000"><tspan
         id="tspan79"
         style="fill:#000000;font-size:42.687500px;font-style:normal;font-variant:normal;font-weight:400;font-stretch:Normal;font-family:Arial;"
         dy="0.000000"
         dx="0.000000">Cover data</tspan></tspan></text>
  <text
     id="text89"
     y="0.000000"
     x="0.000000"
     transform="matrix(1.000000,-0.000000,0.000000,1.000000,24.838174,516.502008)"
     style="font-size:42.687500px;font-style:normal;font-variant:normal;font-weight:400;font-stretch:Normal;line-height:125.000000%;letter-spacing:0px;word-spacing:0px;fill:#000000;fill-opacity:1;stroke:none;font-family:Arial;text-align:start;text-anchor:start;"
     xml:space="preserve"><tspan
       id="tspan87"
       y="0.000000"
       x="0.000000"><tspan
         id="tspan85"
         style="fill:#000000;font-size:42.687500px;font-style:normal;font-variant:normal;font-weight:400;font-stretch:Normal;font-family:Arial;"
         dy="0.000000"
         dx="0.000000">Output data</tspan></tspan></text>
  <text
     id="text95"
     y="0.000000"
     x="0.000000"
     transform="matrix(1.000000,-0.000000,0.000000,1.000000,992.741229,180.627345)"
     style="font-size:42.687500px;font-style:normal;font-variant:normal;font-weight:400;font-stretch:Normal;line-height:125.000000%;letter-spacing:0px;word-spacing:0px;fill:#000000;fill-opacity:1;stroke:none;font-family:Arial;text-align:start;text-anchor:start;"
     xml:space="preserve"><tspan
       id="tspan93"
       y="0.000000"
       x="0.000000"><tspan
         id="tspan91"
         style="fill:#000000;font-size:42.687500px;font-style:normal;font-variant:normal;font-weight:400;font-stretch:Normal;font-family:Arial;"
         dy="0.000000"
         dx="0.000000">Payload data</tspan></tspan></text>
  <path
     id="path97"
     d="  M 535.17565,244.77165   L 579.36887,288.96487  "
     style="fill:none;stroke:#ff0000;stroke-width:3.9975772px;stroke-linecap:butt;stroke-linejoin:miter;stroke-miterlimit:8;stroke-dasharray:none;stroke-opacity:1;" />
  <path
     id="path99"
     d="  M 535.17565,288.96487   L 579.36887,244.77165  "
     style="fill:none;stroke:#ff0000;stroke-width:3.9975772px;stroke-linecap:butt;stroke-linejoin:miter;stroke-miterlimit:8;stroke-dasharray:none;stroke-opacity:1;" />
  <text
     id="text105"
     y="0.000000"
     x="0.000000"
     transform="matrix(1.000000,-0.000000,0.000000,1.000000,110.119931,146.775869)"
     style="font-size:42.687500px;font-style:normal;font-variant:normal;font-weight:400;font-stretch:Normal;line-height:125.000000%;letter-spacing:0px;word-spacing:0px;fill:#000000;fill-opacity:1;stroke:none;font-family:Calibri;text-align:start;text-anchor:start;"
     xml:space="preserve"><tspan
       id="tspan103"
       y="0.000000"
       x="0.000000"><tspan
         id="tspan101"
         style="fill:#BFBFBF;font-size:42.687500px;font-style:normal;font-variant:normal;font-weight:400;font-stretch:Normal;font-family:Calibri;"
         dy="0.000000"
         dx="0.000000">0</tspan></tspan></text>
  <text
     id="text111"
     y="0.000000"
     x="0.000000"
     transform="matrix(1.000000,-0.000000,0.000000,1.000000,183.812700,146.775869)"
     style="font-size:42.687500px;font-style:normal;font-variant:normal;font-weight:400;font-stretch:Normal;line-height:125.000000%;letter-spacing:0px;word-spacing:0px;fill:#000000;fill-opacity:1;stroke:none;font-family:Calibri;text-align:start;text-anchor:start;"
     xml:space="preserve"><tspan
       id="tspan109"
       y="0.000000"
       x="0.000000"><tspan
         id="tspan107"
         style="fill:#BFBFBF;font-size:42.687500px;font-style:normal;font-variant:normal;font-weight:400;font-stretch:Normal;font-family:Calibri;"
         dy="0.000000"
         dx="0.000000">1</tspan></tspan></text>
  <text
     id="text117"
     y="0.000000"
     x="0.000000"
     transform="matrix(1.000000,-0.000000,0.000000,1.000000,256.136524,146.775869)"
     style="font-size:42.687500px;font-style:normal;font-variant:normal;font-weight:400;font-stretch:Normal;line-height:125.000000%;letter-spacing:0px;word-spacing:0px;fill:#000000;fill-opacity:1;stroke:none;font-family:Calibri;text-align:start;text-anchor:start;"
     xml:space="preserve"><tspan
       id="tspan115"
       y="0.000000"
       x="0.000000"><tspan
         id="tspan113"
         style="fill:#BFBFBF;font-size:42.687500px;font-style:normal;font-variant:normal;font-weight:400;font-stretch:Normal;font-family:Calibri;"
         dy="0.000000"
         dx="0.000000">0</tspan></tspan></text>
  <text
     id="text123"
     y="0.000000"
     x="0.000000"
     transform="matrix(1.000000,-0.000000,0.000000,1.000000,329.265640,146.775869)"
     style="font-size:42.687500px;font-style:normal;font-variant:normal;font-weight:400;font-stretch:Normal;line-height:125.000000%;letter-spacing:0px;word-spacing:0px;fill:#000000;fill-opacity:1;stroke:none;font-family:Calibri;text-align:start;text-anchor:start;"
     xml:space="preserve"><tspan
       id="tspan121"
       y="0.000000"
       x="0.000000"><tspan
         id="tspan119"
         style="fill:#BFBFBF;font-size:42.687500px;font-style:normal;font-variant:normal;font-weight:400;font-stretch:Normal;font-family:Calibri;"
         dy="0.000000"
         dx="0.000000">1</tspan></tspan></text>
  <text
     id="text129"
     y="0.000000"
     x="0.000000"
     transform="matrix(1.000000,-0.000000,0.000000,1.000000,401.731761,146.775869)"
     style="font-size:42.687500px;font-style:normal;font-variant:normal;font-weight:400;font-stretch:Normal;line-height:125.000000%;letter-spacing:0px;word-spacing:0px;fill:#000000;fill-opacity:1;stroke:none;font-family:Calibri;text-align:start;text-anchor:start;"
     xml:space="preserve"><tspan
       id="tspan127"
       y="0.000000"
       x="0.000000"><tspan
         id="tspan125"
         style="fill:#BFBFBF;font-size:42.687500px;font-style:normal;font-variant:normal;font-weight:400;font-stretch:Normal;font-family:Calibri;"
         dy="0.000000"
         dx="0.000000">1</tspan></tspan></text>
  <text
     id="text135"
     y="0.000000"
     x="0.000000"
     transform="matrix(1.000000,-0.000000,0.000000,1.000000,473.354681,146.775869)"
     style="font-size:42.687500px;font-style:normal;font-variant:normal;font-weight:400;font-stretch:Normal;line-height:125.000000%;letter-spacing:0px;word-spacing:0px;fill:#000000;fill-opacity:1;stroke:none;font-family:Calibri;text-align:start;text-anchor:start;"
     xml:space="preserve"><tspan
       id="tspan133"
       y="0.000000"
       x="0.000000"><tspan
         id="tspan131"
         style="fill:#BFBFBF;font-size:42.687500px;font-style:normal;font-variant:normal;font-weight:400;font-stretch:Normal;font-family:Calibri;"
         dy="0.000000"
         dx="0.000000">0</tspan></tspan></text>
  <text
     id="text141"
     y="0.000000"
     x="0.000000"
     transform="matrix(1.000000,-0.000000,0.000000,1.000000,547.607531,146.775869)"
     style="font-size:42.687500px;font-style:normal;font-variant:normal;font-weight:400;font-stretch:Normal;line-height:125.000000%;letter-spacing:0px;word-spacing:0px;fill:#000000;fill-opacity:1;stroke:none;font-family:Calibri;text-align:start;text-anchor:start;"
     xml:space="preserve"><tspan
       id="tspan139"
       y="0.000000"
       x="0.000000"><tspan
         id="tspan137"
         style="fill:#BFBFBF;font-size:42.687500px;font-style:normal;font-variant:normal;font-weight:400;font-stretch:Normal;font-family:Calibri;"
         dy="0.000000"
         dx="0.000000">1</tspan></tspan></text>
  <text
     id="text147"
     y="0.000000"
     x="0.000000"
     transform="matrix(1.000000,-0.000000,0.000000,1.000000,39.082771,437.555128)"
     style="font-size:42.687500px;font-style:normal;font-variant:normal;font-weight:400;font-stretch:Normal;line-height:125.000000%;letter-spacing:0px;word-spacing:0px;fill:#000000;fill-opacity:1;stroke:none;font-family:Calibri;text-align:start;text-anchor:start;"
     xml:space="preserve"><tspan
       id="tspan145"
       y="0.000000"
       x="0.000000"><tspan
         id="tspan143"
         style="fill:#BFBFBF;font-size:42.687500px;font-style:normal;font-variant:normal;font-weight:400;font-stretch:Normal;font-family:Calibri;"
         dy="0.000000"
         dx="0.000000">1</tspan></tspan></text>
  <text
     id="text153"
     y="0.000000"
     x="0.000000"
     transform="matrix(1.000000,-0.000000,0.000000,1.000000,110.119931,437.555128)"
     style="font-size:42.687500px;font-style:normal;font-variant:normal;font-weight:400;font-stretch:Normal;line-height:125.000000%;letter-spacing:0px;word-spacing:0px;fill:#000000;fill-opacity:1;stroke:none;font-family:Calibri;text-align:start;text-anchor:start;"
     xml:space="preserve"><tspan
       id="tspan151"
       y="0.000000"
       x="0.000000"><tspan
         id="tspan149"
         style="fill:#BFBFBF;font-size:42.687500px;font-style:normal;font-variant:normal;font-weight:400;font-stretch:Normal;font-family:Calibri;"
         dy="0.000000"
         dx="0.000000">0</tspan></tspan></text>
  <text
     id="text159"
     y="0.000000"
     x="0.000000"
     transform="matrix(1.000000,-0.000000,0.000000,1.000000,183.812700,437.555128)"
     style="font-size:42.687500px;font-style:normal;font-variant:normal;font-weight:400;font-stretch:Normal;line-height:125.000000%;letter-spacing:0px;word-spacing:0px;fill:#000000;fill-opacity:1;stroke:none;font-family:Calibri;text-align:start;text-anchor:start;"
     xml:space="preserve"><tspan
       id="tspan157"
       y="0.000000"
       x="0.000000"><tspan
         id="tspan155"
         style="fill:#BFBFBF;font-size:42.687500px;font-style:normal;font-variant:normal;font-weight:400;font-stretch:Normal;font-family:Calibri;"
         dy="0.000000"
         dx="0.000000">1</tspan></tspan></text>
  <text
     id="text165"
     y="0.000000"
     x="0.000000"
     transform="matrix(1.000000,-0.000000,0.000000,1.000000,256.136524,437.555128)"
     style="font-size:42.687500px;font-style:normal;font-variant:normal;font-weight:400;font-stretch:Normal;line-height:125.000000%;letter-spacing:0px;word-spacing:0px;fill:#000000;fill-opacity:1;stroke:none;font-family:Calibri;text-align:start;text-anchor:start;"
     xml:space="preserve"><tspan
       id="tspan163"
       y="0.000000"
       x="0.000000"><tspan
         id="tspan161"
         style="fill:#BFBFBF;font-size:42.687500px;font-style:normal;font-variant:normal;font-weight:400;font-stretch:Normal;font-family:Calibri;"
         dy="0.000000"
         dx="0.000000">0</tspan></tspan></text>
  <text
     id="text171"
     y="0.000000"
     x="0.000000"
     transform="matrix(1.000000,-0.000000,0.000000,1.000000,329.265640,437.555128)"
     style="font-size:42.687500px;font-style:normal;font-variant:normal;font-weight:400;font-stretch:Normal;line-height:125.000000%;letter-spacing:0px;word-spacing:0px;fill:#000000;fill-opacity:1;stroke:none;font-family:Calibri;text-align:start;text-anchor:start;"
     xml:space="preserve"><tspan
       id="tspan169"
       y="0.000000"
       x="0.000000"><tspan
         id="tspan167"
         style="fill:#BFBFBF;font-size:42.687500px;font-style:normal;font-variant:normal;font-weight:400;font-stretch:Normal;font-family:Calibri;"
         dy="0.000000"
         dx="0.000000">1</tspan></tspan></text>
  <text
     id="text177"
     y="0.000000"
     x="0.000000"
     transform="matrix(1.000000,-0.000000,0.000000,1.000000,401.731761,437.555128)"
     style="font-size:42.687500px;font-style:normal;font-variant:normal;font-weight:400;font-stretch:Normal;line-height:125.000000%;letter-spacing:0px;word-spacing:0px;fill:#000000;fill-opacity:1;stroke:none;font-family:Calibri;text-align:start;text-anchor:start;"
     xml:space="preserve"><tspan
       id="tspan175"
       y="0.000000"
       x="0.000000"><tspan
         id="tspan173"
         style="fill:#BFBFBF;font-size:42.687500px;font-style:normal;font-variant:normal;font-weight:400;font-stretch:Normal;font-family:Calibri;"
         dy="0.000000"
         dx="0.000000">1</tspan></tspan></text>
  <text
     id="text183"
     y="0.000000"
     x="0.000000"
     transform="matrix(1.000000,-0.000000,0.000000,1.000000,473.354681,437.555128)"
     style="font-size:42.687500px;font-style:normal;font-variant:normal;font-weight:400;font-stretch:Normal;line-height:125.000000%;letter-spacing:0px;word-spacing:0px;fill:#000000;fill-opacity:1;stroke:none;font-family:Calibri;text-align:start;text-anchor:start;"
     xml:space="preserve"><tspan
       id="tspan181"
       y="0.000000"
       x="0.000000"><tspan
         id="tspan179"
         style="fill:#BFBFBF;font-size:42.687500px;font-style:normal;font-variant:normal;font-weight:400;font-stretch:Normal;font-family:Calibri;"
         dy="0.000000"
         dx="0.000000">0</tspan></tspan></text>
  <text
     id="text189"
     y="0.000000"
     x="0.000000"
     transform="matrix(1.000000,-0.000000,0.000000,1.000000,547.607531,436.489016)"
     style="font-size:42.687500px;font-style:normal;font-variant:normal;font-weight:400;font-stretch:Normal;line-height:125.000000%;letter-spacing:0px;word-spacing:0px;fill:#000000;fill-opacity:1;stroke:none;font-family:Calibri;text-align:start;text-anchor:start;"
     xml:space="preserve"><tspan
       id="tspan187"
       y="0.000000"
       x="0.000000"><tspan
         id="tspan185"
         style="fill:#70AD47;font-size:42.687500px;font-style:normal;font-variant:normal;font-weight:400;font-stretch:Normal;font-family:Calibri;"
         dy="0.000000"
         dx="0.000000">1</tspan></tspan></text>
  <path
     id="path191"
     d="  M 520.92429,387.88492   L 593.8401,387.88492   L 593.8401,460.82071   L 520.92429,460.82071   z "
     style="fill:none;stroke:#70ad47;stroke-width:3.9975772px;stroke-linecap:butt;stroke-linejoin:miter;stroke-miterlimit:8;stroke-dasharray:none;stroke-opacity:1;" />
  <text
     id="text197"
     y="0.000000"
     x="0.000000"
     transform="matrix(1.000000,-0.000000,0.000000,1.000000,703.620516,255.770593)"
     style="font-size:42.687500px;font-style:normal;font-variant:normal;font-weight:400;font-stretch:Normal;line-height:125.000000%;letter-spacing:0px;word-spacing:0px;fill:#000000;fill-opacity:1;stroke:none;font-family:Calibri;text-align:start;text-anchor:start;"
     xml:space="preserve"><tspan
       id="tspan195"
       y="0.000000"
       x="0.000000"><tspan
         id="tspan193"
         style="fill:#70AD47;font-size:42.687500px;font-style:normal;font-variant:normal;font-weight:400;font-stretch:Normal;font-family:Calibri;"
         dy="0.000000"
         dx="0.000000">1</tspan></tspan></text>
  <text
     id="text203"
     y="0.000000"
     x="0.000000"
     transform="matrix(1.000000,-0.000000,0.000000,1.000000,776.596601,255.770593)"
     style="font-size:42.687500px;font-style:normal;font-variant:normal;font-weight:400;font-stretch:Normal;line-height:125.000000%;letter-spacing:0px;word-spacing:0px;fill:#000000;fill-opacity:1;stroke:none;font-family:Calibri;text-align:start;text-anchor:start;"
     xml:space="preserve"><tspan
       id="tspan201"
       y="0.000000"
       x="0.000000"><tspan
         id="tspan199"
         style="fill:#C5E0B4;font-size:42.687500px;font-style:normal;font-variant:normal;font-weight:400;font-stretch:Normal;font-family:Calibri;"
         dy="0.000000"
         dx="0.000000">0</tspan></tspan></text>
  <text
     id="text209"
     y="0.000000"
     x="0.000000"
     transform="matrix(1.000000,-0.000000,0.000000,1.000000,1214.453499,255.770593)"
     style="font-size:42.687500px;font-style:normal;font-variant:normal;font-weight:400;font-stretch:Normal;line-height:125.000000%;letter-spacing:0px;word-spacing:0px;fill:#000000;fill-opacity:1;stroke:none;font-family:Calibri;text-align:start;text-anchor:start;"
     xml:space="preserve"><tspan
       id="tspan207"
       y="0.000000"
       x="0.000000"><tspan
         id="tspan205"
         style="fill:#C5E0B4;font-size:42.687500px;font-style:normal;font-variant:normal;font-weight:400;font-stretch:Normal;font-family:Calibri;"
         dy="0.000000"
         dx="0.000000">0</tspan></tspan></text>
  <text
     id="text215"
     y="0.000000"
     x="0.000000"
     transform="matrix(1.000000,-0.000000,0.000000,1.000000,849.572764,255.770593)"
     style="font-size:42.687500px;font-style:normal;font-variant:normal;font-weight:400;font-stretch:Normal;line-height:125.000000%;letter-spacing:0px;word-spacing:0px;fill:#000000;fill-opacity:1;stroke:none;font-family:Calibri;text-align:start;text-anchor:start;"
     xml:space="preserve"><tspan
       id="tspan213"
       y="0.000000"
       x="0.000000"><tspan
         id="tspan211"
         style="fill:#C5E0B4;font-size:42.687500px;font-style:normal;font-variant:normal;font-weight:400;font-stretch:Normal;font-family:Calibri;"
         dy="0.000000"
         dx="0.000000">0</tspan></tspan></text>
  <text
     id="text221"
     y="0.000000"
     x="0.000000"
     transform="matrix(1.000000,-0.000000,0.000000,1.000000,922.548926,255.770593)"
     style="font-size:42.687500px;font-style:normal;font-variant:normal;font-weight:400;font-stretch:Normal;line-height:125.000000%;letter-spacing:0px;word-spacing:0px;fill:#000000;fill-opacity:1;stroke:none;font-family:Calibri;text-align:start;text-anchor:start;"
     xml:space="preserve"><tspan
       id="tspan219"
       y="0.000000"
       x="0.000000"><tspan
         id="tspan217"
         style="fill:#C5E0B4;font-size:42.687500px;font-style:normal;font-variant:normal;font-weight:400;font-stretch:Normal;font-family:Calibri;"
         dy="0.000000"
         dx="0.000000">1</tspan></tspan></text>
  <text
     id="text227"
     y="0.000000"
     x="0.000000"
     transform="matrix(1.000000,-0.000000,0.000000,1.000000,995.525089,255.770593)"
     style="font-size:42.687500px;font-style:normal;font-variant:normal;font-weight:400;font-stretch:Normal;line-height:125.000000%;letter-spacing:0px;word-spacing:0px;fill:#000000;fill-opacity:1;stroke:none;font-family:Calibri;text-align:start;text-anchor:start;"
     xml:space="preserve"><tspan
       id="tspan225"
       y="0.000000"
       x="0.000000"><tspan
         id="tspan223"
         style="fill:#C5E0B4;font-size:42.687500px;font-style:normal;font-variant:normal;font-weight:400;font-stretch:Normal;font-family:Calibri;"
         dy="0.000000"
         dx="0.000000">1</tspan></tspan></text>
  <text
     id="text233"
     y="0.000000"
     x="0.000000"
     transform="matrix(1.000000,-0.000000,0.000000,1.000000,1068.501174,255.770593)"
     style="font-size:42.687500px;font-style:normal;font-variant:normal;font-weight:400;font-stretch:Normal;line-height:125.000000%;letter-spacing:0px;word-spacing:0px;fill:#000000;fill-opacity:1;stroke:none;font-family:Calibri;text-align:start;text-anchor:start;"
     xml:space="preserve"><tspan
       id="tspan231"
       y="0.000000"
       x="0.000000"><tspan
         id="tspan229"
         style="fill:#C5E0B4;font-size:42.687500px;font-style:normal;font-variant:normal;font-weight:400;font-stretch:Normal;font-family:Calibri;"
         dy="0.000000"
         dx="0.000000">0</tspan></tspan></text>
  <text
     id="text239"
     y="0.000000"
     x="0.000000"
     transform="matrix(1.000000,-0.000000,0.000000,1.000000,1141.477336,255.770593)"
     style="font-size:42.687500px;font-style:normal;font-variant:normal;font-weight:400;font-stretch:Normal;line-height:125.000000%;letter-spacing:0px;word-spacing:0px;fill:#000000;fill-opacity:1;stroke:none;font-family:Calibri;text-align:start;text-anchor:start;"
     xml:space="preserve"><tspan
       id="tspan237"
       y="0.000000"
       x="0.000000"><tspan
         id="tspan235"
         style="fill:#C5E0B4;font-size:42.687500px;font-style:normal;font-variant:normal;font-weight:400;font-stretch:Normal;font-family:Calibri;"
         dy="0.000000"
         dx="0.000000">1</tspan></tspan></text>
</svg>
