  <!--
<svg xmlns="http://www.w3.org/2000/svg" style="display: none;">
  <symbol id="beaker" viewBox="214.7 0 182.6 792">
    <circle cx="344.8" cy="20.2" r="20.2"/>
    <circle cx="344.8" cy="92.9" r="20.2"/>
    <circle cx="320.5" cy="169.7" r="24.2"/>
    <circle cx="243" cy="141.4" r="24.2"/>
    <circle cx="284.2" cy="56.6" r="36.4"/>
    <path d="M397.3 768.5l-11.3-343.5v-178.5l9.7-20.2h-29.9l-4 13.7 2.4 189.9 9.7 316.8c1.6 14.5-19.4 12.9-34.8 12.9h-33.9s-38.8.8-46.1 0c-14.5-.8-18.6 1.6-17-29.1 1.6-25.2.8-95.5 5.7-301.5l-2.4-189.9-3.2-12.9h-27.5l9.7 20.2v178.6s-3.2 323.3-3.2 343.5c0 26.7 22.6 23.4 22.6 23.4h128.5c7.2 0 25 0 25-23.4zM259.9 473.5h93.8l-1.6-79.9h-92.2zM356.1 611.7l-2.4-132.6v5.7h-93.8l-.8 126.9zM352.1 382.3l-1.7-99.4h-89.7l-.8 99.4zM259.1 623l-.8 123.6h101l-2.4-123.6z"/>
  </symbol>
</svg>
-->


<svg version="1.1" height="300" width="300" xmlns="http://www.w3.org/2000/svg" xmlns:xlink="http://www.w3.org/1999/xlink" style="display: none;">
  
	<symbol id="lightbulb">
		<g transform="scale(0.55) translate(-30, 120) rotate(-45, 150, 150)">		
			<path d="M352,368H160c-8.844,0-16-7.156-16-16s7.156-16,16-16h192c8.844,0,16,7.156,16,16S360.844,368,352,368z M368,400
		  c0-8.844-7.156-16-16-16H160c-8.844,0-16,7.156-16,16s7.156,16,16,16h192C360.844,416,368,408.844,368,400z M336,448
		  c0-8.844-7.156-16-16-16H192c-8.844,0-16,7.156-16,16s7.156,16,16,16h128C328.844,464,336,456.844,336,448z M138.719,316.188
		  c6.563-5.906,7.094-16.031,1.156-22.594c-56.813-62.969-53.563-158.438,7.406-217.344c60.969-58.938,156.5-58.938,217.438,0
		  c60.969,58.906,64.219,154.375,7.406,217.344c-5.938,6.563-5.406,16.688,1.156,22.594s16.688,5.375,22.594-1.156
		  c68.438-75.844,64.531-190.844-8.906-261.781c-73.406-71-188.469-71-261.938,0c-73.438,70.938-77.344,185.938-8.906,261.781
		  c3.156,3.5,7.5,5.281,11.875,5.281C131.813,320.313,135.656,318.938,138.719,316.188z M304,496c0-8.844-7.156-16-16-16h-64
		  c-8.844,0-16,7.156-16,16s7.156,16,16,16h64C296.844,512,304,504.844,304,496z"/>
		</g>
	</symbol>

	<symbol id="book">
	    <g transform="translate(-30, -30) rotate(-45,150,150) ">
          <rect x="75" y="75" width="150" height="200" rx="20" fill-opacity="0" stroke-width="20"/>
          <rect x="100" y="110" width="100" height="10" rx="5" stroke-width="0"/>
          <rect x="100" y="150" width="100" height="10" rx="5" stroke-width="0"/>
          <rect x="100" y="190" width="100" height="10" rx="5" stroke-width="0"/>
          <rect x="100" y="230" width="100" height="10" rx="5" stroke-width="0"/>          
        </g>
    </symbol>

    <symbol id="beaker">
    	<g transform="scale(0.57) translate(-40, -50) rotate(135, 150, 150)">
 			<path
       			d="m 306.21237,-195.88527 q 13.68454,-22.08776 5.25361,-37.84702 -8.43024,-15.75923 -34.33309,-15.75923 H -4.3758149 q -25.9027101,0 -34.3331901,15.75923 -8.430774,15.75926 5.25385,37.84702 L 89.460395,0.91927366 V 99.941817 h -15.63946 q -6.35333,0 -10.99621,4.715283 -4.64315,4.71541 -4.64315,11.16813 0,6.45223 4.64315,11.16796 4.64288,4.71529 10.99621,4.71529 H 198.93614 q 6.35383,0 10.99643,-4.71529 4.64294,-4.71573 4.64294,-11.16796 0,-6.45272 -4.64294,-11.16813 -4.6426,-4.715283 -10.99643,-4.715283 H 183.29668 V 0.91927366 z M 115.85186,-15.956828 49.384635,-122.42483 H 223.37244 l -66.46722,106.468002 -4.88731,7.6934897 V 0.91927366 99.941817 H 120.7394 V 0.91927366 -8.2633383 z" />
		</g>
	</symbol>

	<symbol id="info">
		<g transform="rotate(-45,150,150)">
  			<circle cx="150" cy="150" r="110"  stroke-width="20" fill-opacity="0" />
		  	<rect x="135" y="130" rx="15" width="30" height="100" stroke-width="0"/>
		  	<rect x="135" y="90" rx="15" width="30" height="30" stroke-width="0"/>		  	
  		</g>
  	</symbol>

  	<symbol id="email">
  		<g>
			<path d="M7,7L5.268,5.484L0.316,9.729C0.496,9.896,0.739,10,1.007,10h11.986c0.267,0,0.509-0.104,0.688-0.271L8.732,5.484L7,7z"/>
			<path d="M13.684,0.271C13.504,0.103,13.262,0,12.993,0H1.007C0.74,0,0.498,0.104,0.318,0.273L7,6L13.684,0.271z"/>
			<polygon points="0,0.878 0,9.186 4.833,5.079 	"/>
			<polygon points="9.167,5.079 14,9.186 14,0.875 	"/>
		</g>
	</symbol>

	<symbol id="facebook">
		<g transform="scale(0.4)">
			<path class="inner-shape" style="opacity: 1; fill: rgb(101, 101, 101);" transform="translate(0,0) scale(0.5)" d="M82.667,1H17.335C8.351,1,1,8.351,1,17.336v65.329c0,8.99,7.351,16.335,16.334,16.335h65.332 C91.652,99.001,99,91.655,99,82.665V17.337C99,8.353,91.652,1.001,82.667,1L82.667,1z M84.318,50H68.375v42.875H50V50h-8.855V35.973 H50v-9.11c0-12.378,5.339-19.739,19.894-19.739h16.772V22.3H72.967c-4.066-0.007-4.57,2.12-4.57,6.078l-0.023,7.594H86.75 l-2.431,14.027V50z"></path>
		</g>
	</symbol>

	<symbol id="twitter">
		<g transform="scale(0.4)">
		<path class="inner-shape" style="opacity: 1; fill: rgb(101, 101, 101);" transform="translate(0,0) scale(0.5)" d="M99.001,19.428c-3.606,1.608-7.48,2.695-11.547,3.184c4.15-2.503,7.338-6.466,8.841-11.189 c-3.885,2.318-8.187,4-12.768,4.908c-3.667-3.931-8.893-6.387-14.676-6.387c-11.104,0-20.107,9.054-20.107,20.223 c0,1.585,0.177,3.128,0.52,4.609c-16.71-0.845-31.525-8.895-41.442-21.131C6.092,16.633,5.1,20.107,5.1,23.813 c0,7.017,3.55,13.208,8.945,16.834c-3.296-0.104-6.397-1.014-9.106-2.529c-0.002,0.085-0.002,0.17-0.002,0.255 c0,9.799,6.931,17.972,16.129,19.831c-1.688,0.463-3.463,0.71-5.297,0.71c-1.296,0-2.555-0.127-3.783-0.363 c2.559,8.034,9.984,13.882,18.782,14.045c-6.881,5.424-15.551,8.657-24.971,8.657c-1.623,0-3.223-0.096-4.796-0.282 c8.898,5.738,19.467,9.087,30.82,9.087c36.982,0,57.206-30.817,57.206-57.543c0-0.877-0.02-1.748-0.059-2.617 C92.896,27.045,96.305,23.482,99.001,19.428z"></path>
		</g>
	</symbol>

	<symbol id="linkedin">
		<g transform="scale(0.4)">
			<path class="inner-shape" style="opacity: 1; fill: rgb(101, 101, 101);" transform="translate(0,0) scale(0.5)" d="M82.539,1H17.461C8.408,1,1,8.408,1,17.461v65.078C1,91.592,8.408,99,17.461,99h65.078C91.592,99,99,91.592,99,82.539 V17.461C99,8.408,91.592,1,82.539,1z M37.75,80.625H25.5V37.75h12.25V80.625z M31.625,31.625c-3.383,0-6.125-2.742-6.125-6.125 s2.742-6.125,6.125-6.125s6.125,2.742,6.125,6.125S35.008,31.625,31.625,31.625z M80.625,80.625h-12.25v-24.5 c0-3.383-2.742-6.125-6.125-6.125s-6.125,2.742-6.125,6.125v24.5h-12.25V37.75h12.25v7.606c2.526-3.47,6.389-7.606,10.719-7.606 c7.612,0,13.782,6.856,13.782,15.312L80.625,80.625L80.625,80.625z"></path>
		</g>
	</symbol>

	<symbol id="youtube">
		<g transform="scale(0.4)">
			<path class="inner-shape" style="opacity: 1; fill: rgb(101, 101, 101);" transform="translate(0,0) scale(0.5)" d="M97.284,26.359c-1-5.352-5.456-9.346-10.574-9.839c-12.221-0.784-24.488-1.42-36.731-1.428 c-12.244-0.007-24.464,0.616-36.687,1.388c-5.137,0.497-9.592,4.47-10.589,9.842C1.567,34.058,1,41.869,1,49.678 s0.568,15.619,1.703,23.355c0.996,5.372,5.451,9.822,10.589,10.314c12.226,0.773,24.439,1.561,36.687,1.561 c12.239,0,24.515-0.688,36.731-1.479c5.118-0.497,9.574-5.079,10.574-10.428C98.43,65.278,99,57.477,99,49.676 C99,41.88,98.428,34.083,97.284,26.359z M38.89,63.747V35.272l26.52,14.238L38.89,63.747z"></path>
		</g>
	</symbol>
</svg>
